<svg width="96" height="142" viewBox="0 0 64 93" fill="none" xmlns="http://www.w3.org/2000/svg">
<rect y="-0.821777" width="64" height="93.8218" fill="black"/>
<path d="M15.1009 85.7624L14.1065 82.126H14.554L15.3139 85.0877H15.3494L16.1236 82.126H16.6207L17.3949 85.0877H17.4304L18.1903 82.126H18.6378L17.6435 85.7624H17.1889L16.3864 82.8647H16.358L15.5554 85.7624H15.1009ZM20.0192 85.8192C19.7564 85.8192 19.5297 85.7612 19.3391 85.6452C19.1497 85.528 19.0036 85.3647 18.9006 85.1551C18.7988 84.9444 18.7479 84.6994 18.7479 84.4201C18.7479 84.1407 18.7988 83.8945 18.9006 83.6814C19.0036 83.4672 19.1468 83.3003 19.3303 83.1807C19.5149 83.06 19.7304 82.9996 19.9766 82.9996C20.1186 82.9996 20.2589 83.0233 20.3974 83.0706C20.5359 83.118 20.6619 83.1949 20.7756 83.3015C20.8892 83.4068 20.9798 83.5465 21.0472 83.7205C21.1147 83.8945 21.1484 84.1087 21.1484 84.3632V84.5408H19.0462V84.1786H20.7223C20.7223 84.0247 20.6915 83.8874 20.63 83.7667C20.5696 83.6459 20.4832 83.5506 20.3707 83.4808C20.2595 83.4109 20.1281 83.376 19.9766 83.376C19.8097 83.376 19.6652 83.4175 19.5433 83.5003C19.4226 83.582 19.3297 83.6885 19.2646 83.8199C19.1995 83.9513 19.1669 84.0922 19.1669 84.2425V84.484C19.1669 84.6899 19.2024 84.8645 19.2734 85.0078C19.3456 85.1498 19.4457 85.2581 19.5735 85.3327C19.7013 85.4061 19.8499 85.4428 20.0192 85.4428C20.1293 85.4428 20.2287 85.4274 20.3175 85.3966C20.4074 85.3647 20.485 85.3173 20.5501 85.2546C20.6152 85.1907 20.6655 85.1113 20.701 85.0167L21.1058 85.1303C21.0632 85.2676 20.9916 85.3883 20.891 85.4925C20.7904 85.5955 20.6661 85.676 20.5181 85.734C20.3701 85.7908 20.2038 85.8192 20.0192 85.8192ZM21.8427 85.7624V82.126H22.2617V83.4684H22.2972C22.328 83.421 22.3706 83.3606 22.4251 83.2872C22.4807 83.2127 22.56 83.1464 22.663 83.0884C22.7672 83.0292 22.908 82.9996 23.0856 82.9996C23.3152 82.9996 23.5176 83.057 23.6928 83.1718C23.868 83.2867 24.0047 83.4494 24.103 83.6601C24.2012 83.8708 24.2504 84.1194 24.2504 84.4059C24.2504 84.6947 24.2012 84.945 24.103 85.1569C24.0047 85.3676 23.8686 85.531 23.6946 85.647C23.5206 85.7618 23.32 85.8192 23.0927 85.8192C22.9175 85.8192 22.7772 85.7902 22.6719 85.7322C22.5665 85.673 22.4854 85.6061 22.4286 85.5316C22.3718 85.4558 22.328 85.3931 22.2972 85.3434H22.2475V85.7624H21.8427ZM22.2546 84.3988C22.2546 84.6047 22.2848 84.7864 22.3452 84.9439C22.4055 85.1001 22.4937 85.2226 22.6097 85.3114C22.7257 85.399 22.8678 85.4428 23.0359 85.4428C23.2111 85.4428 23.3572 85.3966 23.4744 85.3043C23.5928 85.2108 23.6816 85.0853 23.7408 84.9279C23.8011 84.7693 23.8313 84.5929 23.8313 84.3988C23.8313 84.207 23.8017 84.0342 23.7425 83.8803C23.6845 83.7252 23.5964 83.6027 23.478 83.5127C23.3608 83.4216 23.2134 83.376 23.0359 83.376C22.8654 83.376 22.7222 83.4192 22.6062 83.5056C22.4902 83.5909 22.4026 83.7104 22.3434 83.8643C22.2842 84.017 22.2546 84.1952 22.2546 84.3988ZM27.4766 85.7624H26.3544V82.126H27.5263C27.879 82.126 28.1809 82.1988 28.4318 82.3444C28.6828 82.4888 28.8751 82.6966 29.0089 82.9676C29.1426 83.2375 29.2095 83.5607 29.2095 83.9371C29.2095 84.3159 29.142 84.642 29.0071 84.9154C28.8722 85.1877 28.6757 85.3972 28.4176 85.544C28.1596 85.6896 27.8459 85.7624 27.4766 85.7624ZM26.7947 85.3718H27.4482C27.7488 85.3718 27.998 85.3138 28.1957 85.1978C28.3933 85.0818 28.5407 84.9166 28.6378 84.7024C28.7348 84.4881 28.7834 84.233 28.7834 83.9371C28.7834 83.6435 28.7354 83.3908 28.6396 83.1789C28.5437 82.9659 28.4004 82.8025 28.2099 82.6889C28.0193 82.5741 27.782 82.5167 27.4979 82.5167H26.7947V85.3718ZM31.0348 85.8192C30.772 85.8192 30.5453 85.7612 30.3548 85.6452C30.1654 85.528 30.0192 85.3647 29.9162 85.1551C29.8144 84.9444 29.7635 84.6994 29.7635 84.4201C29.7635 84.1407 29.8144 83.8945 29.9162 83.6814C30.0192 83.4672 30.1624 83.3003 30.3459 83.1807C30.5305 83.06 30.746 82.9996 30.9922 82.9996C31.1342 82.9996 31.2745 83.0233 31.413 83.0706C31.5515 83.118 31.6776 83.1949 31.7912 83.3015C31.9048 83.4068 31.9954 83.5465 32.0629 83.7205C32.1303 83.8945 32.1641 84.1087 32.1641 84.3632V84.5408H30.0618V84.1786H31.7379C31.7379 84.0247 31.7071 83.8874 31.6456 83.7667C31.5852 83.6459 31.4988 83.5506 31.3864 83.4808C31.2751 83.4109 31.1437 83.376 30.9922 83.376C30.8253 83.376 30.6809 83.4175 30.5589 83.5003C30.4382 83.582 30.3453 83.6885 30.2802 83.8199C30.2151 83.9513 30.1825 84.0922 30.1825 84.2425V84.484C30.1825 84.6899 30.218 84.8645 30.2891 85.0078C30.3613 85.1498 30.4613 85.2581 30.5891 85.3327C30.717 85.4061 30.8655 85.4428 31.0348 85.4428C31.1449 85.4428 31.2443 85.4274 31.3331 85.3966C31.4231 85.3647 31.5006 85.3173 31.5657 85.2546C31.6308 85.1907 31.6811 85.1113 31.7166 85.0167L32.1214 85.1303C32.0788 85.2676 32.0072 85.3883 31.9066 85.4925C31.806 85.5955 31.6817 85.676 31.5337 85.734C31.3858 85.7908 31.2195 85.8192 31.0348 85.8192ZM34.9486 83.0351L33.9401 85.7624H33.5139L32.5054 83.0351H32.96L33.7128 85.2084H33.7412L34.4941 83.0351H34.9486ZM36.5475 85.8192C36.2847 85.8192 36.058 85.7612 35.8675 85.6452C35.6781 85.528 35.5319 85.3647 35.4289 85.1551C35.3271 84.9444 35.2762 84.6994 35.2762 84.4201C35.2762 84.1407 35.3271 83.8945 35.4289 83.6814C35.5319 83.4672 35.6751 83.3003 35.8586 83.1807C36.0432 83.06 36.2587 82.9996 36.5049 82.9996C36.6469 82.9996 36.7872 83.0233 36.9257 83.0706C37.0642 83.118 37.1903 83.1949 37.3039 83.3015C37.4175 83.4068 37.5081 83.5465 37.5756 83.7205C37.643 83.8945 37.6768 84.1087 37.6768 84.3632V84.5408H35.5745V84.1786H37.2506C37.2506 84.0247 37.2198 83.8874 37.1583 83.7667C37.0979 83.6459 37.0115 83.5506 36.8991 83.4808C36.7878 83.4109 36.6564 83.376 36.5049 83.376C36.338 83.376 36.1936 83.4175 36.0716 83.5003C35.9509 83.582 35.858 83.6885 35.7929 83.8199C35.7278 83.9513 35.6952 84.0922 35.6952 84.2425V84.484C35.6952 84.6899 35.7307 84.8645 35.8018 85.0078C35.874 85.1498 35.974 85.2581 36.1018 85.3327C36.2297 85.4061 36.3782 85.4428 36.5475 85.4428C36.6576 85.4428 36.757 85.4274 36.8458 85.3966C36.9358 85.3647 37.0133 85.3173 37.0784 85.2546C37.1435 85.1907 37.1938 85.1113 37.2293 85.0167L37.6341 85.1303C37.5915 85.2676 37.5199 85.3883 37.4193 85.4925C37.3187 85.5955 37.1944 85.676 37.0464 85.734C36.8985 85.7908 36.7322 85.8192 36.5475 85.8192ZM38.7332 82.126V85.7624H38.3142V82.126H38.7332ZM40.6087 85.8192C40.3625 85.8192 40.1464 85.7606 39.9606 85.6434C39.7759 85.5262 39.6315 85.3623 39.5273 85.1516C39.4244 84.9409 39.3729 84.6947 39.3729 84.413C39.3729 84.1289 39.4244 83.8809 39.5273 83.669C39.6315 83.4571 39.7759 83.2926 39.9606 83.1754C40.1464 83.0582 40.3625 82.9996 40.6087 82.9996C40.8549 82.9996 41.0703 83.0582 41.255 83.1754C41.4408 83.2926 41.5852 83.4571 41.6882 83.669C41.7924 83.8809 41.8445 84.1289 41.8445 84.413C41.8445 84.6947 41.7924 84.9409 41.6882 85.1516C41.5852 85.3623 41.4408 85.5262 41.255 85.6434C41.0703 85.7606 40.8549 85.8192 40.6087 85.8192ZM40.6087 85.4428C40.7957 85.4428 40.9496 85.3948 41.0703 85.299C41.1911 85.2031 41.2804 85.077 41.3384 84.9208C41.3964 84.7645 41.4254 84.5952 41.4254 84.413C41.4254 84.2307 41.3964 84.0608 41.3384 83.9034C41.2804 83.7459 41.1911 83.6187 41.0703 83.5216C40.9496 83.4246 40.7957 83.376 40.6087 83.376C40.4216 83.376 40.2678 83.4246 40.147 83.5216C40.0263 83.6187 39.9369 83.7459 39.8789 83.9034C39.8209 84.0608 39.7919 84.2307 39.7919 84.413C39.7919 84.5952 39.8209 84.7645 39.8789 84.9208C39.9369 85.077 40.0263 85.2031 40.147 85.299C40.2678 85.3948 40.4216 85.4428 40.6087 85.4428ZM42.4841 86.7851V83.0351H42.8889V83.4684H42.9387C42.9694 83.421 43.012 83.3606 43.0665 83.2872C43.1221 83.2127 43.2014 83.1464 43.3044 83.0884C43.4086 83.0292 43.5494 82.9996 43.727 82.9996C43.9566 82.9996 44.1591 83.057 44.3343 83.1718C44.5094 83.2867 44.6462 83.4494 44.7444 83.6601C44.8427 83.8708 44.8918 84.1194 44.8918 84.4059C44.8918 84.6947 44.8427 84.945 44.7444 85.1569C44.6462 85.3676 44.51 85.531 44.336 85.647C44.162 85.7618 43.9614 85.8192 43.7341 85.8192C43.5589 85.8192 43.4186 85.7902 43.3133 85.7322C43.2079 85.673 43.1269 85.6061 43.07 85.5316C43.0132 85.4558 42.9694 85.3931 42.9387 85.3434H42.9031V86.7851H42.4841ZM42.896 84.3988C42.896 84.6047 42.9262 84.7864 42.9866 84.9439C43.047 85.1001 43.1352 85.2226 43.2512 85.3114C43.3672 85.399 43.5092 85.4428 43.6773 85.4428C43.8525 85.4428 43.9987 85.3966 44.1159 85.3043C44.2342 85.2108 44.323 85.0853 44.3822 84.9279C44.4426 84.7693 44.4727 84.5929 44.4727 84.3988C44.4727 84.207 44.4432 84.0342 44.384 83.8803C44.326 83.7252 44.2378 83.6027 44.1194 83.5127C44.0022 83.4216 43.8548 83.376 43.6773 83.376C43.5068 83.376 43.3636 83.4192 43.2476 83.5056C43.1316 83.5909 43.044 83.7104 42.9848 83.8643C42.9256 84.017 42.896 84.1952 42.896 84.3988ZM46.6744 85.8192C46.4117 85.8192 46.185 85.7612 45.9944 85.6452C45.805 85.528 45.6588 85.3647 45.5558 85.1551C45.454 84.9444 45.4031 84.6994 45.4031 84.4201C45.4031 84.1407 45.454 83.8945 45.5558 83.6814C45.6588 83.4672 45.8021 83.3003 45.9855 83.1807C46.1702 83.06 46.3856 82.9996 46.6318 82.9996C46.7739 82.9996 46.9142 83.0233 47.0526 83.0706C47.1911 83.118 47.3172 83.1949 47.4308 83.3015C47.5445 83.4068 47.635 83.5465 47.7025 83.7205C47.77 83.8945 47.8037 84.1087 47.8037 84.3632V84.5408H45.7014V84.1786H47.3776C47.3776 84.0247 47.3468 83.8874 47.2852 83.7667C47.2249 83.6459 47.1385 83.5506 47.026 83.4808C46.9147 83.4109 46.7834 83.376 46.6318 83.376C46.4649 83.376 46.3205 83.4175 46.1986 83.5003C46.0779 83.582 45.9849 83.6885 45.9198 83.8199C45.8547 83.9513 45.8222 84.0922 45.8222 84.2425V84.484C45.8222 84.6899 45.8577 84.8645 45.9287 85.0078C46.0009 85.1498 46.1009 85.2581 46.2288 85.3327C46.3566 85.4061 46.5052 85.4428 46.6744 85.4428C46.7845 85.4428 46.884 85.4274 46.9727 85.3966C47.0627 85.3647 47.1402 85.3173 47.2053 85.2546C47.2704 85.1907 47.3208 85.1113 47.3563 85.0167L47.7611 85.1303C47.7185 85.2676 47.6469 85.3883 47.5463 85.4925C47.4456 85.5955 47.3213 85.676 47.1734 85.734C47.0254 85.7908 46.8591 85.8192 46.6744 85.8192ZM48.4411 85.7624V83.0351H48.846V83.447H48.8744C48.9241 83.3121 49.0141 83.2026 49.1443 83.1186C49.2745 83.0345 49.4213 82.9925 49.5846 82.9925C49.6154 82.9925 49.6539 82.9931 49.7 82.9943C49.7462 82.9955 49.7811 82.9972 49.8048 82.9996V83.4257C49.7906 83.4222 49.758 83.4169 49.7071 83.4098C49.6574 83.4015 49.6047 83.3973 49.5491 83.3973C49.4165 83.3973 49.2981 83.4252 49.194 83.4808C49.091 83.5352 49.0093 83.611 48.949 83.7081C48.8898 83.8039 48.8602 83.9134 48.8602 84.0365V85.7624H48.4411Z" fill="#444141"/>
<path d="M20.6182 68.3069C20.6182 68.1207 20.5505 68.015 20.415 67.9896C20.3727 67.9811 20.3304 67.9769 20.2881 67.9769H19.6152V65.0189L20.2754 64.3968L23.2842 68.3069H25.0488C25.0488 68.1207 24.9811 68.015 24.8457 67.9896C24.8034 67.9811 24.7611 67.9769 24.7188 67.9769H24.376L21.0625 63.6605L23.3223 61.553C23.6354 61.2568 23.8724 61.0875 24.0332 61.0452C24.1094 61.0283 24.1898 61.0198 24.2744 61.0198C24.4606 61.0198 24.5664 60.9521 24.5918 60.8167C24.6003 60.7744 24.6045 60.7321 24.6045 60.6898H22.3193V61.0198H23.335L19.6152 64.4476V61.0198H20.6182V60.6898H17.5078V61.0198H18.5234V67.9769H17.5078V68.3069H20.6182ZM30.0127 68.4339C30.6644 68.4339 31.0241 68.0403 31.0918 67.2532C31.1003 67.2025 31.1045 67.1559 31.1045 67.1136L30.7744 67.1009C30.7152 67.7187 30.5501 68.0319 30.2793 68.0403C30.0592 68.0234 29.945 67.8034 29.9365 67.3802V64.7015C29.9365 63.4912 29.3314 62.8522 28.1211 62.7845C28.0449 62.7845 27.9688 62.7845 27.8926 62.7845C26.9447 62.7845 26.3099 63.0045 25.9883 63.4446C25.8867 63.5885 25.8359 63.7324 25.8359 63.8763C25.8359 64.1387 25.9587 64.291 26.2041 64.3333C26.2464 64.3418 26.2887 64.346 26.3311 64.346C26.5257 64.346 26.6696 64.2233 26.7627 63.9778C26.8812 63.6647 26.9616 63.4785 27.0039 63.4193C27.1647 63.2077 27.4144 63.1019 27.7529 63.1019C28.5485 63.1526 28.959 63.5885 28.9844 64.4095V65.2093C26.9954 65.2093 25.8571 65.624 25.5693 66.4534C25.5186 66.6142 25.4932 66.7877 25.4932 66.9739C25.4932 67.6172 25.7767 68.0573 26.3438 68.2943C26.5723 68.3873 26.8135 68.4339 27.0674 68.4339C27.6852 68.4339 28.2057 68.2223 28.6289 67.7991C28.7812 67.6383 28.8955 67.4691 28.9717 67.2913C29.0732 68.0446 29.4202 68.4254 30.0127 68.4339ZM27.4863 67.9261C26.9701 67.9261 26.6527 67.6679 26.5342 67.1517C26.5088 67.0332 26.4961 66.902 26.4961 66.7581C26.4961 66.1911 26.8219 65.8314 27.4736 65.679C27.8206 65.6028 28.3242 65.5605 28.9844 65.5521V66.5677C28.8574 67.1517 28.5485 67.5622 28.0576 67.7991C27.863 67.8838 27.6725 67.9261 27.4863 67.9261ZM32.4756 70.3255C32.3402 70.3255 32.2386 70.2239 32.1709 70.0208C32.0778 69.7669 31.9889 69.6103 31.9043 69.5511C31.8281 69.5003 31.7393 69.4749 31.6377 69.4749C31.3669 69.4749 31.2103 69.5934 31.168 69.8304C31.1595 69.8642 31.1553 69.8939 31.1553 69.9193C31.1553 70.2409 31.3415 70.4736 31.7139 70.6175C31.8831 70.6852 32.0609 70.7191 32.2471 70.7191C32.9157 70.7191 33.4954 70.3086 33.9863 69.4876C34.1895 69.1575 34.3841 68.764 34.5703 68.3069L36.4492 63.6732C36.5339 63.4362 36.627 63.3008 36.7285 63.2669C36.7878 63.25 36.8555 63.2415 36.9316 63.2415C37.1009 63.2415 37.1982 63.195 37.2236 63.1019C37.2406 63.0511 37.249 62.9876 37.249 62.9114H35.3193V63.2415H36.2461L34.6211 67.304L32.8818 63.2415H33.7324V62.9114H31.2568V63.2415H31.8789L34.1641 68.3069C33.6901 69.4241 33.2458 70.0716 32.8311 70.2493C32.7126 70.3001 32.5941 70.3255 32.4756 70.3255ZM40.1689 67.9896H39.5977V65.2474C39.623 64.4603 39.9023 63.8932 40.4355 63.5462C40.6641 63.4023 40.8968 63.3304 41.1338 63.3304C41.6501 63.3304 42.0013 63.5716 42.1875 64.054C42.2637 64.2487 42.3018 64.4687 42.3018 64.7142V67.2278C42.3018 67.6172 42.1917 67.8499 41.9717 67.9261C41.8447 67.9684 41.6374 67.9896 41.3496 67.9896V68.3069H44.2061C44.2061 68.1207 44.1426 68.0192 44.0156 68.0023C43.9818 67.9938 43.9395 67.9896 43.8887 67.9896H43.2539V64.8411C43.2539 63.9948 42.9619 63.3896 42.3779 63.0257C42.1071 62.8649 41.8151 62.7845 41.502 62.7845C40.8757 62.7845 40.3594 63.0342 39.9531 63.5335C39.8008 63.7282 39.6781 63.944 39.585 64.181L39.5342 62.9114H37.6934V63.2288H38.6455V67.2278C38.6455 67.6172 38.5355 67.8499 38.3154 67.9261C38.1885 67.9684 37.9811 67.9896 37.6934 67.9896V68.3069H40.4863C40.4863 68.1207 40.4229 68.0192 40.2959 68.0023C40.262 67.9938 40.2197 67.9896 40.1689 67.9896Z" fill="white"/>
<path d="M12.4375 8.41458C13.8542 8.62291 15.1042 8.76875 16.1875 8.85208C17.3125 8.93541 18.25 9.01875 19 9.10208C19.875 9.18541 20.625 9.22708 21.25 9.22708H23.6875C25.3125 9.22708 28 9.16458 31.75 9.03958C30.8333 9.33125 30.0625 9.74791 29.4375 10.2896C28.8542 10.8312 28.375 11.3937 28 11.9771C27.5417 12.6437 27.2083 13.3312 27 14.0396C26.75 14.9146 26.5208 16.0812 26.3125 17.5396C26.1042 18.8312 25.8958 20.5187 25.6875 22.6021C25.5208 24.6854 25.3542 27.2896 25.1875 30.4146C26.9792 28.3729 28.5417 26.5604 29.875 24.9771C31.25 23.3937 32.4375 21.9979 33.4375 20.7896C34.4375 19.5812 35.2708 18.5396 35.9375 17.6646C36.6458 16.7896 37.2292 16.0396 37.6875 15.4146C38.7708 13.9979 39.3958 13.0396 39.5625 12.5396C39.6042 12.2479 39.5833 11.8937 39.5 11.4771C39.4167 11.1437 39.2917 10.7479 39.125 10.2896C38.9583 9.78958 38.7083 9.24791 38.375 8.66458C40.0417 8.74791 41.4583 8.81041 42.625 8.85208C43.8333 8.89375 44.8333 8.93541 45.625 8.97708C46.5417 9.01875 47.2917 9.03958 47.875 9.03958H50.5C51.4583 9.03958 52.7083 9.03958 54.25 9.03958C55.7917 8.99791 57.7292 8.95625 60.0625 8.91458C58.5208 9.28958 57.0625 9.78958 55.6875 10.4146C54.3125 11.0396 53.0833 11.6437 52 12.2271C50.75 12.9354 49.5833 13.6646 48.5 14.4146C47.4167 15.2479 46.2083 16.2271 44.875 17.3521C43.75 18.3104 42.4375 19.4979 40.9375 20.9146C39.4375 22.2896 37.8125 23.8937 36.0625 25.7271C37.9375 29.3937 39.5625 32.4146 40.9375 34.7896C42.3542 37.1229 43.5417 38.9979 44.5 40.4146C45.5833 42.0812 46.5 43.3521 47.25 44.2271C48 45.0187 48.875 45.8312 49.875 46.6646C50.7083 47.3729 51.75 48.1646 53 49.0396C54.25 49.8729 55.6875 50.6854 57.3125 51.4771L39.5 52.3521C39.75 52.0187 39.8958 51.6229 39.9375 51.1646C40.0208 50.6646 40.0625 50.2062 40.0625 49.7896C40.0625 49.3312 40.0208 48.8312 39.9375 48.2896C39.7708 47.6229 39.3333 46.5396 38.625 45.0396C38.0417 43.7479 37.1458 41.9354 35.9375 39.6021C34.7292 37.2271 33.0625 34.1021 30.9375 30.2271L25.625 35.7896C25.4167 37.1229 25.3125 38.3312 25.3125 39.4146C25.3125 40.4979 25.3542 41.3937 25.4375 42.1021C25.5625 42.9771 25.7292 43.7271 25.9375 44.3521C26.1875 44.9771 26.5417 45.6854 27 46.4771C27.375 47.1854 27.875 48.0187 28.5 48.9771C29.125 49.9354 29.9167 50.9979 30.875 52.1646C29.9167 51.9146 28.9583 51.7479 28 51.6646C27.0417 51.5396 26.1667 51.4562 25.375 51.4146C24.4583 51.3729 23.5833 51.3937 22.75 51.4771C21.875 51.5604 20.8542 51.6854 19.6875 51.8521C18.6875 52.0187 17.4583 52.2271 16 52.4771C14.5417 52.7271 12.875 53.0396 11 53.4146C11.9167 52.8729 12.6458 52.2896 13.1875 51.6646C13.7292 51.0396 14.1667 50.4354 14.5 49.8521C14.875 49.1854 15.125 48.5396 15.25 47.9146C15.3333 47.3729 15.3958 46.2062 15.4375 44.4146C15.5208 42.6229 15.5625 40.5396 15.5625 38.1646C15.6042 35.7479 15.6042 33.2062 15.5625 30.5396C15.5208 27.8729 15.4792 25.3729 15.4375 23.0396C15.3958 20.7062 15.3333 18.7271 15.25 17.1021C15.2083 15.4354 15.1667 14.4146 15.125 14.0396C15 13.4562 14.8333 12.8312 14.625 12.1646C14.4167 11.5812 14.125 10.9771 13.75 10.3521C13.4167 9.68541 12.9792 9.03958 12.4375 8.41458Z" fill="#398F4C"/>
<path d="M9.4375 6.375C10.8542 6.58333 12.1042 6.72917 13.1875 6.8125C14.3125 6.89583 15.25 6.97917 16 7.0625C16.875 7.14583 17.625 7.1875 18.25 7.1875H20.6875C22.3125 7.1875 25 7.125 28.75 7C27.8333 7.29167 27.0625 7.70833 26.4375 8.25C25.8542 8.79167 25.375 9.35417 25 9.9375C24.5417 10.6042 24.2083 11.2917 24 12C23.75 12.875 23.5208 14.0417 23.3125 15.5C23.1042 16.7917 22.8958 18.4792 22.6875 20.5625C22.5208 22.6458 22.3542 25.25 22.1875 28.375C23.9792 26.3333 25.5417 24.5208 26.875 22.9375C28.25 21.3542 29.4375 19.9583 30.4375 18.75C31.4375 17.5417 32.2708 16.5 32.9375 15.625C33.6458 14.75 34.2292 14 34.6875 13.375C35.7708 11.9583 36.3958 11 36.5625 10.5C36.6042 10.2083 36.5833 9.85417 36.5 9.4375C36.4167 9.10417 36.2917 8.70833 36.125 8.25C35.9583 7.75 35.7083 7.20833 35.375 6.625C37.0417 6.70833 38.4583 6.77083 39.625 6.8125C40.8333 6.85417 41.8333 6.89583 42.625 6.9375C43.5417 6.97917 44.2917 7 44.875 7H47.5C48.4583 7 49.7083 7 51.25 7C52.7917 6.95833 54.7292 6.91667 57.0625 6.875C55.5208 7.25 54.0625 7.75 52.6875 8.375C51.3125 9 50.0833 9.60417 49 10.1875C47.75 10.8958 46.5833 11.625 45.5 12.375C44.4167 13.2083 43.2083 14.1875 41.875 15.3125C40.75 16.2708 39.4375 17.4583 37.9375 18.875C36.4375 20.25 34.8125 21.8542 33.0625 23.6875C34.9375 27.3542 36.5625 30.375 37.9375 32.75C39.3542 35.0833 40.5417 36.9583 41.5 38.375C42.5833 40.0417 43.5 41.3125 44.25 42.1875C45 42.9792 45.875 43.7917 46.875 44.625C47.7083 45.3333 48.75 46.125 50 47C51.25 47.8333 52.6875 48.6458 54.3125 49.4375L36.5 50.3125C36.75 49.9792 36.8958 49.5833 36.9375 49.125C37.0208 48.625 37.0625 48.1667 37.0625 47.75C37.0625 47.2917 37.0208 46.7917 36.9375 46.25C36.7708 45.5833 36.3333 44.5 35.625 43C35.0417 41.7083 34.1458 39.8958 32.9375 37.5625C31.7292 35.1875 30.0625 32.0625 27.9375 28.1875L22.625 33.75C22.4167 35.0833 22.3125 36.2917 22.3125 37.375C22.3125 38.4583 22.3542 39.3542 22.4375 40.0625C22.5625 40.9375 22.7292 41.6875 22.9375 42.3125C23.1875 42.9375 23.5417 43.6458 24 44.4375C24.375 45.1458 24.875 45.9792 25.5 46.9375C26.125 47.8958 26.9167 48.9583 27.875 50.125C26.9167 49.875 25.9583 49.7083 25 49.625C24.0417 49.5 23.1667 49.4167 22.375 49.375C21.4583 49.3333 20.5833 49.3542 19.75 49.4375C18.875 49.5208 17.8542 49.6458 16.6875 49.8125C15.6875 49.9792 14.4583 50.1875 13 50.4375C11.5417 50.6875 9.875 51 8 51.375C8.91667 50.8333 9.64583 50.25 10.1875 49.625C10.7292 49 11.1667 48.3958 11.5 47.8125C11.875 47.1458 12.125 46.5 12.25 45.875C12.3333 45.3333 12.3958 44.1667 12.4375 42.375C12.5208 40.5833 12.5625 38.5 12.5625 36.125C12.6042 33.7083 12.6042 31.1667 12.5625 28.5C12.5208 25.8333 12.4792 23.3333 12.4375 21C12.3958 18.6667 12.3333 16.6875 12.25 15.0625C12.2083 13.3958 12.1667 12.375 12.125 12C12 11.4167 11.8333 10.7917 11.625 10.125C11.4167 9.54167 11.125 8.9375 10.75 8.3125C10.4167 7.64583 9.97917 7 9.4375 6.375Z" fill="white"/>
</svg>
