<svg width="1180" height="1050" viewBox="0 0 1180 1050" fill="none" xmlns="http://www.w3.org/2000/svg">
<path d="M688.738 2H658.187L806.958 149.156V212.791L617.895 404.138V617.138L806.958 805.834V877.423L659.072 1026.79H685.196L1178 535.385V493.403L688.738 2Z" fill="#96B588"/>
<path d="M730.801 167.274L767.551 230.025L617.895 376.297H563.434L417.762 230.025L450.084 167.274H730.801Z" fill="#96B588"/>
<path d="M733.015 838.093L765.78 902.17L620.551 1048H562.991L417.762 902.17L450.527 838.093H733.015Z" fill="#96B588"/>
<path d="M524.027 1026.79H497.904L2 535.385V493.403L495.247 2H526.684L374.37 149.156V212.791L563.434 404.138V617.138L377.913 805.834V881.4L524.027 1026.79Z" fill="#96B588"/>
<path d="M688.738 2H658.187L806.958 149.156V212.791L617.895 404.138V617.138L806.958 805.834V877.423L659.072 1026.79H685.196L1178 535.385V493.403L688.738 2Z" stroke="black" stroke-width="3"/>
<path d="M730.801 167.274L767.551 230.025L617.895 376.297H563.434L417.762 230.025L450.084 167.274H730.801Z" stroke="black" stroke-width="3"/>
<path d="M733.015 838.093L765.78 902.17L620.551 1048H562.991L417.762 902.17L450.527 838.093H733.015Z" stroke="black" stroke-width="3"/>
<path d="M524.027 1026.79H497.904L2 535.385V493.403L495.247 2H526.684L374.37 149.156V212.791L563.434 404.138V617.138L377.913 805.834V881.4L524.027 1026.79Z" stroke="black" stroke-width="3"/>
</svg>
