<svg width="66" height="82" viewBox="0 0 48 49" fill="none" xmlns="http://www.w3.org/2000/svg">
<path d="M16.4148 2.1334C15.8634 2.63808 13.2082 5.21652 6.99856 11.4929V15.0027L5.59885 17.6866L4.32639 18.5124H2.92667H1.46334L0 20.0265V24.4997L4.32639 28.7666H5.59885H6.99856L8.97089 26.8396V25.4632V23.7427V21.6093L10.816 20.0265L12.7883 19.4071H14.4425L17.1147 21.6093L22.7771 15.0027L20.4867 11.4929L21.0593 8.8089L24.7495 5.9873L33.784 3.1657V0.825834L22.7771 0L16.4148 2.1334Z" fill="#7ED957"/>
<path d="M18.3972 21.9041L23.7326 16.3903L48 40.2834V45.9695L45.1889 48.669H44.271H43.0088L42.0909 48.0947L18.3972 21.9041Z" fill="#7ED957"/>
</svg>
